<?xml version="1.0" standalone="no"?>
<!DOCTYPE svg PUBLIC "-//W3C//DTD SVG 20010904//EN"
 "http://www.w3.org/TR/2001/REC-SVG-20010904/DTD/svg10.dtd">
<svg version="1.0" xmlns="http://www.w3.org/2000/svg"
 width="500.000000pt" height="340.000000pt" viewBox="0 0 500.000000 340.000000"
 preserveAspectRatio="xMidYMid meet">

<g transform="translate(0.000000,340.000000) scale(0.100000,-0.100000)"
fill="#000000" stroke="none">
<path d="M2343 3210 c-484 -51 -925 -343 -1169 -772 -132 -232 -202 -525 -191
-793 11 -236 56 -413 158 -620 72 -148 161 -272 276 -388 222 -224 469 -360
780 -429 82 -19 130 -22 298 -22 173 -1 215 2 310 23 474 101 866 410 1069
841 57 123 99 250 122 375 26 138 26 401 0 540 -60 327 -219 617 -462 844
-318 297 -760 446 -1191 401z m387 -286 c188 -35 383 -122 535 -239 19 -15
-22 -57 -855 -890 -481 -481 -878 -875 -882 -875 -13 0 -96 126 -141 215 -290
573 -103 1257 440 1612 152 99 354 172 533 193 92 10 270 3 370 -16z m803
-526 c86 -129 139 -247 176 -388 109 -418 -7 -860 -308 -1173 -173 -180 -362
-290 -608 -354 -99 -26 -123 -28 -293 -28 -170 0 -194 3 -292 28 -171 45 -294
100 -427 195 l-63 45 878 878 c484 484 880 879 880 879 1 0 26 -37 57 -82z"/>
</g>
</svg>
