<?xml version="1.0" standalone="no"?>
<!DOCTYPE svg PUBLIC "-//W3C//DTD SVG 20010904//EN"
 "http://www.w3.org/TR/2001/REC-SVG-20010904/DTD/svg10.dtd">
<svg version="1.0" xmlns="http://www.w3.org/2000/svg"
 width="496.000000pt" height="250.000000pt" viewBox="0 0 496.000000 250.000000"
 preserveAspectRatio="xMidYMid meet">

<g transform="translate(0.000000,250.000000) scale(0.100000,-0.100000)"
fill="#000000" stroke="none">
<path d="M4094 1906 c-22 -7 -54 -20 -70 -29 -16 -9 -64 -32 -106 -51 -86 -38
-273 -163 -389 -260 l-77 -64 -108 1 c-79 0 -124 -5 -162 -17 -57 -19 -116
-69 -144 -124 -24 -46 -41 -49 -90 -13 -23 17 -50 31 -60 31 -10 0 -18 4 -18
9 0 17 -133 92 -177 100 -24 5 -46 11 -49 14 -3 2 -8 28 -13 56 -4 28 -16 60
-26 72 -34 36 -55 21 -105 -76 -60 -116 -73 -119 -120 -28 -43 84 -77 123
-106 123 -33 0 -38 -15 -44 -114 -3 -49 -10 -91 -15 -93 -6 -2 -42 27 -80 64
-115 109 -173 153 -204 153 -37 0 -46 -13 -59 -85 -45 -257 -55 -311 -62 -319
-5 -5 -51 3 -107 19 -70 20 -120 28 -173 28 -126 -1 -273 -50 -341 -114 -28
-26 -38 -29 -98 -29 -102 0 -155 -20 -249 -96 -46 -36 -90 -77 -99 -90 -9 -14
-39 -40 -67 -59 -115 -77 -197 -173 -254 -298 -27 -57 -48 -144 -38 -154 25
-25 603 -43 763 -24 252 31 478 97 678 198 124 63 144 77 172 120 31 46 82
117 126 174 26 35 47 69 47 76 0 7 7 13 16 13 10 0 14 -6 10 -15 -3 -8 -6 -57
-7 -110 -1 -52 -5 -98 -10 -101 -14 -8 -11 -36 4 -32 6 3 15 22 19 44 7 43 55
185 66 196 8 8 293 -12 304 -21 4 -3 16 -62 27 -131 24 -146 62 -233 140 -318
43 -46 59 -75 87 -147 7 -19 8 -19 11 1 5 29 -43 133 -101 217 -34 50 -50 86
-61 136 -20 97 -30 247 -17 255 6 3 13 2 17 -4 3 -5 17 -10 31 -10 51 0 162
-77 190 -132 8 -16 18 -27 21 -24 17 16 -77 120 -129 143 -38 17 -35 30 10 43
21 5 60 26 86 47 28 22 50 33 56 27 5 -5 21 -54 35 -109 42 -161 79 -217 175
-261 59 -28 146 -82 379 -237 198 -131 271 -175 271 -163 0 2 -41 33 -90 68
-50 34 -164 115 -253 179 -89 63 -193 132 -232 153 -103 56 -135 84 -157 134
-21 48 -45 163 -57 277 -12 109 0 111 50 9 35 -70 113 -150 179 -184 31 -16
145 -48 237 -66 12 -2 25 -14 29 -27 3 -12 24 -39 45 -60 42 -41 66 -43 48 -3
-8 17 -8 29 0 44 18 33 54 35 115 6 63 -30 97 -74 106 -139 l5 -40 28 47 c36
61 35 98 -8 229 -19 60 -35 116 -35 124 0 9 -18 61 -41 115 -22 54 -39 109
-37 122 l3 23 362 5 c326 4 364 7 380 22 23 23 14 30 -27 18 -18 -5 -178 -9
-356 -9 -177 0 -338 -3 -356 -6 -31 -6 -43 0 -122 59 -48 36 -91 66 -96 66 -6
0 -10 7 -10 15 0 8 3 15 8 15 4 0 25 17 47 38 107 98 284 215 480 316 113 57
121 64 49 42z m-2129 -302 c46 -33 215 -208 221 -228 5 -16 -1 -27 -32 -51
-21 -16 -78 -67 -125 -113 l-86 -82 -39 28 c-62 45 -66 53 -54 108 26 124 60
314 60 333 0 25 26 27 55 5z m364 -78 c17 -41 31 -79 31 -84 0 -5 -12 -14 -27
-21 -16 -8 -36 -18 -47 -23 -31 -16 -38 3 -26 78 16 102 21 124 30 124 4 0 22
-33 39 -74z m265 22 c8 -46 -1 -58 -46 -58 -19 0 -28 5 -28 17 0 18 46 83 59
83 5 0 11 -19 15 -42z m-519 -507 c32 -10 61 -24 63 -30 5 -15 -70 -130 -85
-130 -7 -1 -13 8 -13 19 0 11 -9 46 -20 77 -21 61 -25 83 -12 83 4 0 34 -9 67
-19z"/>
<path d="M2891 194 c0 -11 3 -14 6 -6 3 7 2 16 -1 19 -3 4 -6 -2 -5 -13z"/>
</g>
</svg>
