<?xml version="1.0" standalone="no"?>
<!DOCTYPE svg PUBLIC "-//W3C//DTD SVG 20010904//EN"
 "http://www.w3.org/TR/2001/REC-SVG-20010904/DTD/svg10.dtd">
<svg version="1.0" xmlns="http://www.w3.org/2000/svg"
 width="635.000000pt" height="231.000000pt" viewBox="0 0 635.000000 231.000000"
 preserveAspectRatio="xMidYMid meet">

<g transform="translate(0.000000,231.000000) scale(0.100000,-0.100000)"
fill="#000000" stroke="none">
<path d="M935 2060 c-187 -26 -383 -158 -450 -302 -34 -73 -35 -182 -1 -253
104 -223 483 -292 792 -144 133 63 251 207 262 319 7 74 -3 76 -234 51 -104
-11 -220 -23 -259 -26 -38 -4 -76 -12 -82 -17 -8 -6 -13 -36 -13 -76 l0 -65
52 7 c29 4 85 16 125 27 56 16 77 18 93 9 28 -15 22 -28 -29 -67 -62 -48 -137
-67 -242 -61 -99 6 -140 24 -176 78 -63 92 12 231 161 301 91 42 149 47 235
19 80 -26 73 -28 183 44 34 23 62 46 62 51 -1 15 -103 74 -159 91 -60 18 -237
26 -320 14z"/>
<path d="M1840 2059 c-69 -4 -161 -14 -205 -22 l-80 -14 3 -44 c1 -24 3 -191
4 -371 1 -181 5 -328 9 -328 4 0 36 6 71 14 35 8 92 17 128 21 100 11 97 6 86
129 -6 72 -6 110 1 117 7 7 58 -32 164 -125 85 -75 159 -136 166 -136 6 0 65
29 130 65 65 36 124 65 131 65 8 0 12 -20 12 -64 0 -36 3 -67 8 -70 11 -7 290
22 332 34 19 5 112 13 207 17 94 3 177 9 184 13 13 9 -17 165 -35 178 -6 5
-49 5 -96 1 -47 -4 -129 -11 -182 -15 l-98 -7 0 41 c0 22 6 44 12 48 7 5 73
14 147 21 74 6 138 16 142 20 9 9 -3 119 -14 130 -4 3 -55 1 -114 -5 -172 -19
-165 -21 -161 35 l3 48 55 7 c30 4 112 10 183 13 146 8 138 0 109 115 l-17 65
-120 -1 c-109 -1 -292 -14 -480 -32 l-70 -7 4 -284 c3 -322 11 -302 -86 -228
-32 24 -93 70 -135 101 -43 32 -78 61 -78 65 0 5 19 17 42 27 103 46 198 146
198 209 0 17 -11 47 -25 68 -61 89 -184 109 -535 86z m221 -179 l24 -20 -30
-25 c-28 -24 -161 -85 -184 -85 -7 0 -11 25 -11 65 0 78 7 84 106 85 58 0 76
-4 95 -20z"/>
<path d="M3555 2044 c-99 -7 -214 -17 -255 -21 l-75 -8 3 -355 c2 -195 7 -359
12 -363 8 -10 192 8 300 29 41 7 153 17 248 20 95 4 174 10 176 13 2 3 -4 44
-13 91 l-17 85 -79 0 c-44 -1 -126 -5 -182 -9 -87 -8 -104 -6 -117 7 -18 17
-21 47 -6 47 6 0 10 7 10 15 0 8 1 15 3 16 1 0 67 8 147 17 l145 17 -2 35 c-2
19 -5 50 -9 69 l-5 34 -52 -7 c-29 -3 -91 -9 -139 -13 l-88 -6 0 40 c0 22 6
46 14 52 15 13 176 30 283 31 39 0 74 4 77 9 3 5 -5 44 -18 87 l-23 79 -79 1
c-43 1 -160 -4 -259 -12z"/>
<path d="M4992 2021 c-84 -21 -155 -41 -158 -44 -3 -3 65 -99 150 -213 86
-115 156 -214 156 -221 0 -7 -30 -61 -66 -120 -50 -81 -62 -108 -52 -114 7 -5
80 -8 162 -6 l148 2 24 65 c14 35 30 71 37 80 7 8 26 40 42 70 25 49 72 119
164 245 16 22 38 58 49 81 12 22 44 69 73 103 36 44 49 65 41 73 -22 22 -293
38 -316 19 -8 -7 -42 -60 -76 -117 -34 -58 -66 -104 -73 -102 -25 8 -76 100
-87 156 -16 80 -17 82 -42 81 -13 0 -92 -17 -176 -38z"/>
<path d="M4065 2033 c-22 -3 -45 -9 -52 -15 -24 -19 -8 -687 17 -712 16 -16
245 11 365 43 208 55 314 110 413 215 74 79 92 118 92 199 l0 61 -62 61 c-74
72 -172 118 -301 141 -77 13 -366 17 -472 7z m444 -212 c46 -24 81 -69 81
-104 0 -52 -93 -139 -190 -177 -72 -28 -83 -17 -88 85 -4 68 11 196 25 218 9
15 129 0 172 -22z"/>
<path d="M2670 1113 c-63 -7 -130 -16 -149 -19 l-34 -5 5 -335 c3 -184 3 -334
-1 -334 -7 0 -68 123 -146 294 -29 65 -97 260 -130 374 -5 19 -13 22 -53 22
-86 0 -395 -29 -402 -37 -5 -4 -34 -84 -65 -178 -60 -179 -97 -273 -164 -417
-22 -48 -36 -90 -31 -93 9 -5 148 -25 285 -41 l50 -6 21 64 20 63 100 7 c119
7 132 5 140 -30 4 -15 13 -39 21 -55 16 -33 45 -35 173 -12 47 8 109 15 138
15 51 0 52 0 52 -30 0 -35 4 -36 98 -16 37 8 97 18 134 21 37 4 70 10 72 13 2
4 -1 51 -6 105 -7 65 -7 102 -1 108 7 7 46 -23 114 -86 57 -54 114 -104 127
-112 23 -16 66 -13 253 19 l67 11 0 215 c1 118 5 219 9 223 12 12 245 37 268
29 19 -7 20 -16 20 -278 0 -149 3 -273 7 -277 4 -4 33 -3 65 3 32 6 110 17
173 23 63 6 117 12 119 14 2 2 -9 77 -24 167 -31 182 -37 331 -14 352 9 9 64
17 157 23 78 6 145 13 148 16 8 8 -36 149 -52 166 -12 13 -67 12 -416 -8 -222
-12 -407 -23 -413 -24 -5 -1 -10 10 -10 25 0 14 -3 29 -6 33 -8 7 -326 -22
-341 -31 -8 -5 -9 -64 -4 -190 4 -117 3 -185 -4 -189 -5 -3 -19 9 -30 27 -46
75 -129 247 -146 303 -29 96 -12 91 -194 68z m-670 -295 c7 -24 20 -74 31
-113 10 -38 19 -75 19 -82 0 -9 -20 -13 -70 -13 -49 0 -70 4 -70 13 0 15 50
219 57 229 10 18 23 5 33 -34z"/>
<path d="M4646 1089 c-250 -86 -456 -252 -456 -368 0 -46 40 -85 109 -106 49
-15 78 -17 163 -11 57 4 121 11 143 16 62 15 188 12 210 -4 31 -23 11 -44 -66
-66 -61 -18 -92 -21 -192 -18 -109 3 -120 1 -134 -17 -18 -25 -73 -131 -73
-143 0 -12 131 -32 213 -32 113 0 272 41 386 100 56 28 155 112 180 153 39 64
19 121 -56 158 -46 23 -56 24 -283 24 -229 0 -235 0 -238 21 -4 25 25 52 75
70 56 19 111 17 149 -7 37 -23 16 -25 239 25 56 12 62 23 45 85 -14 52 -54 99
-105 122 -59 27 -228 26 -309 -2z"/>
</g>
</svg>
